<?xml version="1.0" encoding="UTF-8"?>
<svg xmlns="http://www.w3.org/2000/svg" style="display:none">
  <symbol id="icon-pinterest" viewBox="0 0 32 32">
    <path
      d="M16.0036 0C7.16589 0 0 7.16268 0 15.9964C0 22.545 3.94374 28.1724 9.58071 30.6503C9.53784 29.5362 9.57357 28.1938 9.85935 26.9797C10.1666 25.68 11.917 18.2601 11.917 18.2601C11.917 18.2601 11.4025 17.239 11.4025 15.7322C11.4025 13.3613 12.7743 11.5903 14.489 11.5903C15.9464 11.5903 16.6467 12.6829 16.6467 13.9897C16.6467 15.4537 15.7106 17.6389 15.232 19.667C14.8319 21.3667 16.0822 22.745 17.7611 22.745C20.7904 22.745 22.8337 18.853 22.8337 14.2397C22.8337 10.7333 20.4689 8.11248 16.175 8.11248C11.324 8.11248 8.29471 11.7331 8.29471 15.7751C8.29471 17.1676 8.7091 18.1531 9.35209 18.9101C9.645 19.26 9.68787 19.4028 9.58071 19.8027C9.50212 20.0955 9.33066 20.8025 9.25206 21.0882C9.1449 21.4953 8.81626 21.6381 8.45189 21.4881C6.21567 20.5739 5.17258 18.1317 5.17258 15.3751C5.17258 10.8333 9.00915 5.38452 16.6109 5.38452C22.7193 5.38452 26.7417 9.80495 26.7417 14.5468C26.7417 20.8239 23.2481 25.5086 18.104 25.5086C16.3752 25.5086 14.7533 24.5731 14.196 23.5162C14.196 23.5162 13.2673 27.201 13.0672 27.9152C12.7314 29.1507 12.067 30.379 11.4597 31.343C12.9328 31.7773 14.4606 31.9987 15.9964 32C24.8341 32 32 24.8372 32 16.0036C32 7.16982 24.8413 0 16.0036 0Z"
      fill="currentColor" />
  </symbol>
  <symbol id="icon-twitter" viewBox="0 0 32 32">
    <path
      d="M28 8.3698C27.0997 8.77727 26.1472 9.04573 25.1724 9.16667C26.1968 8.54187 26.9672 7.54926 27.339 6.37501C26.3705 6.9649 25.3127 7.3788 24.2109 7.59897C23.7471 7.09247 23.189 6.68954 22.5709 6.41467C21.9529 6.13979 21.2875 5.99871 20.6155 6.00001C17.8944 6.00001 15.6925 8.26042 15.6925 11.0469C15.6905 11.4345 15.7332 11.8209 15.8195 12.1979C13.8683 12.1026 11.9577 11.5842 10.21 10.6757C8.46221 9.76715 6.91574 8.48863 5.66949 6.92188C5.23228 7.68965 5.00106 8.56566 5 9.45834C5 11.2083 5.8765 12.7552 7.2 13.6615C6.41586 13.6421 5.64779 13.4259 4.961 13.0313V13.0938C4.961 15.5417 6.661 17.5781 8.911 18.0417C8.48789 18.1591 8.05188 18.2187 7.614 18.2188C7.30329 18.2193 6.99328 18.1879 6.6885 18.125C7.314 20.1302 9.1345 21.5886 11.291 21.6302C9.53868 23.0369 7.3873 23.7973 5.175 23.7917C4.78231 23.7911 4.38998 23.7667 4 23.7187C6.25059 25.2157 8.86671 26.0076 11.537 25.9999C20.605 25.9999 25.559 18.3072 25.559 11.6354C25.559 11.4167 25.5534 11.1979 25.5434 10.9844C26.5051 10.2719 27.3368 9.38653 28 8.3698Z"
      fill="currentColor" />

  </symbol>
  <symbol id="icon-fb" viewBox="0 0 32 32">
    <path fill-rule="evenodd" clip-rule="evenodd"
      d="M32 16.0966C32 7.20754 24.8357 0 16 0C7.16429 0 0 7.20754 0 16.0966C0 24.1306 5.85001 30.7899 13.5 31.9984V20.751H9.43644V16.0966H13.5V12.5503C13.5 8.51683 15.8893 6.28701 19.5436 6.28701C21.2943 6.28701 23.1258 6.60177 23.1258 6.60177V10.5634H21.1071C19.1207 10.5634 18.4994 11.8037 18.4994 13.0785V16.0966H22.9364L22.2278 20.751H18.5001V32C26.1501 30.7919 32 24.1326 32 16.0966Z"
      fill="currentColor" />
  </symbol>
  <symbol id="yellow-line" viewBox="0 0 32 1">
    <rect width="32" height="1" fill="#F59E0B" />
  </symbol>
  <symbol id="white-border" viewBox="0 0 120 5">
    <path d="M2 2.5H44.5" stroke="#D1FAE5" stroke-width="4" stroke-linecap="round"
      stroke-linejoin="round" />
    <path d="M60.5 2.5H72.5" stroke="#D1FAE5" stroke-width="4" stroke-linecap="round"
      stroke-linejoin="round" />
    <path d="M88.5 2.5H118" stroke="#D1FAE5" stroke-width="4" stroke-linecap="round"
      stroke-linejoin="round" />
  </symbol>
  <symbol id="blue-border" viewBox="0 0 47 79">
    <path d="M2 2H38.5C41.8137 2 44.5 4.68629 44.5 8V77" stroke="#3B82F6" stroke-width="4"
      stroke-linecap="round" stroke-linejoin="round" />
  </symbol>
  <symbol id="yellow-border" viewBox="0 0 44 102">
    <path d="M2 2.5H37.5C39.7091 2.5 41.5 4.29086 41.5 6.5V99.5" stroke="#F59E0B" stroke-width="4"
      stroke-linecap="round" stroke-linejoin="round" />
  </symbol>
  <symbol id="red-border" viewBox="0 0 71 96">
    <path d="M2 94V8.5C2 5.18629 4.68629 2.5 8 2.5H68.5" stroke="#EF4444" stroke-width="4"
      stroke-linecap="round" stroke-linejoin="round" />
  </symbol>
  <symbol id="chevron-down" viewBox="0 0 24 24">
    <path
      d="M18.9982 10.1353C18.9987 9.87047 18.9175 9.61386 18.7687 9.40997C18.6849 9.29522 18.5821 9.20036 18.466 9.13083C18.3499 9.06131 18.2229 9.01847 18.0922 9.00479C17.9615 8.9911 17.8297 9.00683 17.7044 9.05108C17.5791 9.09533 17.4626 9.16722 17.3618 9.26265L12.0137 14.3397L6.65557 9.44397C6.5535 9.34983 6.43607 9.27953 6.31001 9.23711C6.18395 9.19469 6.05175 9.18099 5.92101 9.19679C5.79027 9.21258 5.66357 9.25757 5.54819 9.32916C5.43281 9.40075 5.33103 9.49754 5.24869 9.61396C5.15785 9.73121 5.08934 9.86853 5.04744 10.0173C5.00554 10.166 4.99117 10.323 5.00522 10.4784C5.01928 10.6337 5.06145 10.7841 5.12911 10.9201C5.19676 11.0561 5.28842 11.1747 5.39835 11.2685L11.3851 16.7422C11.5636 16.9089 11.7876 17 12.0187 17C12.2498 17 12.4737 16.9089 12.6523 16.7422L18.639 11.0759C18.7597 10.9622 18.8552 10.8178 18.9176 10.6543C18.98 10.4909 19.0076 10.3131 18.9982 10.1353Z"
      fill="currentColor" />

  </symbol>
  <symbol id="hounter-logo" viewBox="0 0 115 36">
    <path
      d="M0 4C0 1.79086 1.79086 0 4 0H28C30.2091 0 32 1.79086 32 4V8C32 21.2548 21.2548 32 8 32H4C1.79086 32 0 30.2091 0 28V4Z"
      fill="#F59E0B" />
    <path
      d="M4 8C4 5.79086 5.79086 4 8 4H32C34.2091 4 36 5.79086 36 8V12C36 25.2548 25.2548 36 12 36H8C5.79086 36 4 34.2091 4 32V8Z"
      fill="#4BE4C9" />
    <path
      d="M55.952 26V14.8H59.408V26H55.952ZM49.28 26V14.8H52.736V26H49.28ZM50.576 21.92L50.592 18.912H57.904V21.92H50.576Z"
      fill="#1B1C57" />
    <path
      d="M65.9835 26.16C65.0555 26.16 64.2289 25.968 63.5035 25.584C62.7782 25.2 62.2075 24.6774 61.7915 24.016C61.3755 23.344 61.1675 22.576 61.1675 21.712C61.1675 20.848 61.3755 20.0854 61.7915 19.424C62.2075 18.752 62.7782 18.224 63.5035 17.84C64.2289 17.456 65.0555 17.264 65.9835 17.264C66.9115 17.264 67.7329 17.456 68.4475 17.84C69.1729 18.224 69.7382 18.752 70.1435 19.424C70.5595 20.0854 70.7675 20.848 70.7675 21.712C70.7675 22.576 70.5595 23.344 70.1435 24.016C69.7382 24.6774 69.1729 25.2 68.4475 25.584C67.7329 25.968 66.9115 26.16 65.9835 26.16ZM65.9835 23.44C66.2715 23.44 66.5275 23.3654 66.7515 23.216C66.9862 23.0667 67.1675 22.864 67.2955 22.608C67.4235 22.3414 67.4875 22.0427 67.4875 21.712C67.4875 21.3707 67.4235 21.072 67.2955 20.816C67.1675 20.5494 66.9862 20.3414 66.7515 20.192C66.5275 20.0427 66.2715 19.9681 65.9835 19.9681C65.6849 19.9681 65.4182 20.0427 65.1835 20.192C64.9595 20.3414 64.7782 20.5494 64.6395 20.816C64.5115 21.072 64.4475 21.3707 64.4475 21.712C64.4475 22.0427 64.5115 22.3414 64.6395 22.608C64.7782 22.864 64.9595 23.0667 65.1835 23.216C65.4182 23.3654 65.6849 23.44 65.9835 23.44Z"
      fill="#1B1C57" />
    <path
      d="M75.234 26.1761C74.5834 26.1761 74.034 26.0427 73.586 25.776C73.138 25.5094 72.7967 25.12 72.562 24.608C72.3274 24.0854 72.21 23.456 72.21 22.72V17.44H75.458V22.448C75.458 22.6827 75.4954 22.88 75.57 23.04C75.6554 23.2 75.7727 23.3227 75.922 23.408C76.0714 23.4934 76.2527 23.536 76.466 23.536C76.626 23.536 76.77 23.5147 76.898 23.472C77.0367 23.4187 77.154 23.344 77.25 23.248C77.346 23.1521 77.4207 23.0454 77.474 22.928C77.5274 22.8 77.554 22.6667 77.554 22.528V17.44H80.802V26H77.826L77.634 24.272L78.242 24.08C78.1247 24.4854 77.9167 24.8481 77.618 25.168C77.33 25.4774 76.978 25.7227 76.562 25.904C76.146 26.0854 75.7034 26.1761 75.234 26.1761Z"
      fill="#1B1C57" />
    <path
      d="M83.0732 26V17.44H86.0812L86.2412 19.168L85.5532 19.36C85.6705 18.9547 85.8785 18.5974 86.1772 18.288C86.4865 17.968 86.8545 17.7174 87.2812 17.536C87.7078 17.3547 88.1612 17.264 88.6412 17.264C89.2812 17.264 89.8252 17.3974 90.2732 17.664C90.7212 17.9307 91.0572 18.3254 91.2812 18.848C91.5158 19.36 91.6332 19.984 91.6332 20.72V26H88.3852V20.992C88.3852 20.7574 88.3478 20.56 88.2732 20.4C88.1985 20.24 88.0865 20.1174 87.9372 20.032C87.7878 19.9467 87.6118 19.904 87.4092 19.904C87.2492 19.904 87.0998 19.9307 86.9612 19.984C86.8332 20.0267 86.7212 20.096 86.6252 20.192C86.5292 20.288 86.4545 20.3947 86.4012 20.512C86.3478 20.6294 86.3212 20.7627 86.3212 20.912V26H84.7052C84.2998 26 83.9585 26 83.6812 26C83.4145 26 83.2118 26 83.0732 26Z"
      fill="#1B1C57" />
    <path d="M94.1618 26V15.28H97.4098V26H94.1618ZM92.8338 20.16V17.44H98.8178V20.16H92.8338Z"
      fill="#1B1C57" />
    <path
      d="M104.327 26.16C103.335 26.16 102.481 25.968 101.767 25.584C101.052 25.2 100.503 24.6774 100.119 24.016C99.7345 23.344 99.5425 22.576 99.5425 21.712C99.5425 21.072 99.6492 20.48 99.8625 19.936C100.076 19.392 100.375 18.9227 100.759 18.528C101.153 18.1227 101.612 17.8134 102.135 17.6C102.668 17.376 103.249 17.264 103.879 17.264C104.508 17.264 105.079 17.376 105.591 17.6C106.113 17.8134 106.561 18.1227 106.935 18.528C107.308 18.9227 107.591 19.392 107.783 19.936C107.985 20.48 108.076 21.072 108.055 21.712L108.039 22.384H101.335L100.967 20.864H105.463L105.159 21.184V20.896C105.159 20.6934 105.105 20.5174 104.999 20.368C104.903 20.208 104.764 20.0854 104.583 20C104.401 19.9147 104.188 19.872 103.943 19.872C103.633 19.872 103.372 19.936 103.159 20.064C102.945 20.192 102.78 20.3734 102.663 20.608C102.556 20.8427 102.503 21.1254 102.503 21.456C102.503 21.84 102.583 22.176 102.743 22.464C102.913 22.752 103.159 22.976 103.479 23.136C103.809 23.296 104.215 23.376 104.695 23.376C105.015 23.376 105.287 23.3387 105.511 23.264C105.745 23.1787 105.991 23.0454 106.247 22.864L107.735 24.96C107.34 25.2694 106.951 25.5094 106.567 25.68C106.193 25.8507 105.82 25.9734 105.447 26.048C105.084 26.1227 104.711 26.16 104.327 26.16Z"
      fill="#1B1C57" />
    <path
      d="M109.558 26V17.44H112.566L112.758 20.288L112.038 19.84C112.176 19.3494 112.395 18.912 112.694 18.528C112.992 18.1334 113.35 17.824 113.766 17.6C114.192 17.376 114.646 17.264 115.126 17.264C115.318 17.264 115.499 17.28 115.67 17.312C115.84 17.3334 116.006 17.3654 116.166 17.408L115.27 21.008C115.163 20.9334 114.992 20.864 114.758 20.8C114.534 20.736 114.288 20.704 114.022 20.704C113.83 20.704 113.654 20.736 113.494 20.8C113.344 20.8534 113.216 20.9387 113.11 21.056C113.014 21.1734 112.939 21.312 112.886 21.472C112.832 21.6321 112.806 21.8187 112.806 22.032V26H109.558Z"
      fill="#1B1C57" />
  </symbol>
  <symbol id="icon-deals" viewBox="0 0 24 24">
    <path
      d="M12.8 4.8H2.79998V4.4L11.6 3.696V4.4H12.8V3.2C12.8 2.32 12.0872 1.7024 11.2168 1.8264L3.18398 2.9736C2.31278 3.0984 1.59998 3.92 1.59998 4.8V12.8C1.59998 13.2244 1.76855 13.6313 2.0686 13.9314C2.36866 14.2314 2.77563 14.4 3.19998 14.4H12.8C13.2243 14.4 13.6313 14.2314 13.9313 13.9314C14.2314 13.6313 14.4 13.2244 14.4 12.8V6.4C14.4 5.97566 14.2314 5.56869 13.9313 5.26863C13.6313 4.96858 13.2243 4.8 12.8 4.8ZM11.6 10.4048C11.4423 10.4048 11.2863 10.3737 11.1406 10.3133C10.995 10.2529 10.8627 10.1644 10.7513 10.0529C10.6399 9.94143 10.5515 9.80907 10.4912 9.66341C10.4309 9.51775 10.3999 9.36164 10.4 9.204C10.4 9.04637 10.4311 8.89028 10.4915 8.74466C10.5519 8.59904 10.6403 8.46674 10.7518 8.35531C10.8634 8.24388 10.9957 8.1555 11.1414 8.09523C11.287 8.03495 11.4431 8.00395 11.6008 8.004C11.9191 8.00411 12.2244 8.13068 12.4495 8.35588C12.6745 8.58107 12.8009 8.88644 12.8008 9.2048C12.8007 9.52317 12.6741 9.82845 12.4489 10.0535C12.2237 10.2785 11.9183 10.4049 11.6 10.4048Z"
      fill="currentColor" />
  </symbol>
  <symbol id="icon-house" viewBox="0 0 24 24">
    <path
      d="M21 10.8319V19.5C20.9999 19.7718 20.9262 20.0386 20.7868 20.272C20.6475 20.5054 20.4476 20.6968 20.2084 20.8259C19.9917 20.9432 19.7485 21.0031 19.5021 20.9999H14.9968C14.7978 20.9999 14.6071 20.9209 14.4664 20.7802C14.3258 20.6396 14.2468 20.4488 14.2468 20.2499V15.7492C14.2468 15.5503 14.1677 15.3596 14.0271 15.2189C13.8864 15.0783 13.6957 14.9992 13.4968 14.9992H10.4968C10.2978 14.9992 10.1071 15.0783 9.96643 15.2189C9.82577 15.3596 9.74676 15.5503 9.74676 15.7492V20.2499C9.74676 20.4488 9.66774 20.6396 9.52709 20.7802C9.38644 20.9209 9.19567 20.9999 8.99676 20.9999H4.50023C4.28758 21.0005 4.07726 20.9555 3.88338 20.8682C3.68951 20.7808 3.51654 20.653 3.37607 20.4934C3.12949 20.2082 2.99574 19.8427 3.00004 19.4657V10.8318C3.0002 10.6228 3.04395 10.4161 3.12849 10.225C3.21302 10.0339 3.33649 9.8625 3.49101 9.72178L10.9904 2.90306C11.2658 2.65074 11.6258 2.51076 11.9994 2.51073C12.373 2.51069 12.733 2.6506 13.0085 2.90288L20.5092 9.72187C20.6636 9.86262 20.7871 10.034 20.8716 10.2251C20.9561 10.4163 20.9999 10.6229 21 10.8319Z"
      fill="currentColor" />
  </symbol>
  <symbol id="icon-email" viewBox="0 0 24 24">
    <path
      d="M19 4H5C4.20435 4 3.44129 4.31607 2.87868 4.87868C2.31607 5.44129 2 6.20435 2 7V17C2 17.7956 2.31607 18.5587 2.87868 19.1213C3.44129 19.6839 4.20435 20 5 20H19C19.7956 20 20.5587 19.6839 21.1213 19.1213C21.6839 18.5587 22 17.7956 22 17V7C22 6.20435 21.6839 5.44129 21.1213 4.87868C20.5587 4.31607 19.7956 4 19 4ZM19 6L12.5 10.47C12.348 10.5578 12.1755 10.604 12 10.604C11.8245 10.604 11.652 10.5578 11.5 10.47L5 6H19Z"
      fill="currentColor" />
  </symbol>
  <symbol id="chevron-right" viewBox="0 0 24 24">
    <path
      d="M10.1353 5.0018C9.87047 5.00135 9.61386 5.08254 9.40997 5.2313C9.29522 5.31506 9.20036 5.41793 9.13083 5.53402C9.0613 5.65011 9.01847 5.77714 9.00479 5.90782C8.9911 6.03851 9.00683 6.17029 9.05108 6.29562C9.09533 6.42094 9.16722 6.53735 9.26265 6.63818L14.3397 11.9863L9.44397 17.3444C9.34983 17.4465 9.27953 17.5639 9.23711 17.69C9.19469 17.8161 9.18099 17.9482 9.19679 18.079C9.21258 18.2097 9.25757 18.3364 9.32916 18.4518C9.40075 18.5672 9.49754 18.669 9.61396 18.7513C9.73121 18.8421 9.86853 18.9107 10.0173 18.9526C10.166 18.9945 10.323 19.0088 10.4784 18.9948C10.6337 18.9807 10.7841 18.9385 10.9201 18.8709C11.0561 18.8032 11.1747 18.7116 11.2685 18.6016L16.7422 12.6149C16.9089 12.4364 17 12.2124 17 11.9813C17 11.7502 16.9089 11.5263 16.7422 11.3477L11.0759 5.36101C10.9622 5.24026 10.8178 5.14481 10.6543 5.0824C10.4909 5.01999 10.3131 4.99238 10.1353 5.0018Z"
      fill="currentColor" />
  </symbol>
  <symbol id="icon-popular" viewBox="0 0 24 24">
    <path
      d="M19.5492 10.9969C19.0942 9.97279 18.4328 9.05362 17.6063 8.29688L16.9242 7.6711C16.9011 7.65043 16.8732 7.63577 16.843 7.62839C16.8129 7.62101 16.7814 7.62115 16.7513 7.62879C16.7212 7.63642 16.6935 7.65133 16.6705 7.67219C16.6475 7.69305 16.63 7.71924 16.6195 7.74844L16.3148 8.62266C16.125 9.1711 15.7758 9.73126 15.2812 10.282C15.2484 10.3172 15.2109 10.3266 15.1852 10.3289C15.1594 10.3313 15.1195 10.3266 15.0844 10.2938C15.0516 10.2656 15.0352 10.2234 15.0375 10.1813C15.1242 8.77032 14.7023 7.17891 13.7789 5.44688C13.0148 4.00782 11.9531 2.88516 10.6266 2.10235L9.65859 1.53282C9.53203 1.45782 9.37031 1.55626 9.37734 1.70391L9.42891 2.82891C9.46406 3.59766 9.375 4.27735 9.16406 4.84219C8.90625 5.5336 8.53594 6.17579 8.0625 6.75235C7.73302 7.15304 7.35959 7.51547 6.94922 7.83282C5.96087 8.59258 5.15722 9.5661 4.59844 10.6805C4.04103 11.8046 3.75068 13.0422 3.75 14.2969C3.75 15.4031 3.96797 16.4742 4.39922 17.4844C4.81562 18.457 5.41654 19.3396 6.16875 20.0836C6.92813 20.8336 7.80938 21.4242 8.79141 21.8344C9.80859 22.2609 10.8867 22.4766 12 22.4766C13.1133 22.4766 14.1914 22.2609 15.2086 21.8367C16.1882 21.429 17.079 20.8343 17.8312 20.0859C18.5906 19.3359 19.1859 18.4594 19.6008 17.4867C20.0314 16.4793 20.2523 15.3948 20.25 14.2992C20.25 13.1555 20.0156 12.0445 19.5492 10.9969Z"
      fill="currentColor" />
  </symbol>
  <symbol id="icon-wallet" viewBox="0 0 24 24">
    <path
      d="M19.2 7.2H4.20002V6.6L17.4 5.544V6.6H19.2V4.8C19.2 3.48 18.1308 2.5536 16.8252 2.7396L4.77602 4.4604C3.46922 4.6476 2.40002 5.88 2.40002 7.2V19.2C2.40002 19.8365 2.65288 20.447 3.10297 20.8971C3.55306 21.3471 4.1635 21.6 4.80002 21.6H19.2C19.8365 21.6 20.447 21.3471 20.8971 20.8971C21.3472 20.447 21.6 19.8365 21.6 19.2V9.6C21.6 8.96348 21.3472 8.35303 20.8971 7.90294C20.447 7.45285 19.8365 7.2 19.2 7.2ZM17.4 15.6072C17.1636 15.6071 16.9294 15.5605 16.711 15.4699C16.4926 15.3793 16.2941 15.2466 16.127 15.0794C15.9598 14.9121 15.8273 14.7136 15.7369 14.4951C15.6464 14.2766 15.5999 14.0425 15.6 13.806C15.6001 13.5695 15.6468 13.3354 15.7373 13.117C15.8279 12.8986 15.9606 12.7001 16.1278 12.533C16.2951 12.3658 16.4936 12.2332 16.7121 12.1428C16.9306 12.0524 17.1648 12.0059 17.4012 12.006C17.8788 12.0062 18.3367 12.196 18.6743 12.5338C19.0118 12.8716 19.2014 13.3296 19.2012 13.8072C19.2011 14.2847 19.0112 14.7427 18.6734 15.0802C18.3356 15.4178 17.8776 15.6074 17.4 15.6072Z"
      fill="currentColor" />

  </symbol>
  <symbol id="icon-location" viewBox="0 0 24 24">
    <path
      d="M12 1C14.3869 1 16.6761 1.99337 18.364 3.76159C20.0518 5.5298 21 7.92801 21 10.4286C21 14.934 18.0975 19.081 12.402 22.8776C12.2818 22.9575 12.1424 23 12 23C11.8576 23 11.7182 22.9575 11.598 22.8776C5.9025 19.081 3 14.934 3 10.4286C3 7.92801 3.94821 5.5298 5.63604 3.76159C7.32387 1.99337 9.61305 1 12 1ZM12 7.28576C11.2044 7.28576 10.4413 7.61689 9.87868 8.20629C9.31607 8.7957 9 9.5951 9 10.4286C9 11.2622 9.31607 12.0616 9.87868 12.651C10.4413 13.2404 11.2044 13.5715 12 13.5715C12.7956 13.5715 13.5587 13.2404 14.1213 12.651C14.6839 12.0616 15 11.2622 15 10.4286C15 9.5951 14.6839 8.7957 14.1213 8.20629C13.5587 7.61689 12.7956 7.28576 12 7.28576Z"
      fill="currentColor" />

  </symbol>
  <symbol id="icon-mail" viewBox="0 0 24 24">
    <path
      d="M19 4H5C4.20435 4 3.44129 4.31607 2.87868 4.87868C2.31607 5.44129 2 6.20435 2 7V17C2 17.7956 2.31607 18.5587 2.87868 19.1213C3.44129 19.6839 4.20435 20 5 20H19C19.7956 20 20.5587 19.6839 21.1213 19.1213C21.6839 18.5587 22 17.7956 22 17V7C22 6.20435 21.6839 5.44129 21.1213 4.87868C20.5587 4.31607 19.7956 4 19 4ZM19 6L12.5 10.47C12.348 10.5578 12.1755 10.604 12 10.604C11.8245 10.604 11.652 10.5578 11.5 10.47L5 6H19Z"
      fill="currentColor" />

  </symbol>
  <symbol id="icon-star" viewBox="0 0 24 24">
    <path
      d="M22.9419 8.89802C22.8727 8.6944 22.7454 8.51548 22.5758 8.38335C22.4061 8.25122 22.2014 8.17167 21.9871 8.15452L15.7159 7.65628L13.0022 1.64998C12.9158 1.45653 12.7752 1.29222 12.5974 1.17688C12.4197 1.06155 12.2124 1.00012 12.0004 1C11.7885 0.999884 11.5811 1.06109 11.4033 1.17623C11.2254 1.29137 11.0846 1.45552 10.998 1.64888L8.28427 7.65628L2.01313 8.15452C1.80243 8.17121 1.601 8.24824 1.43294 8.37639C1.26488 8.50455 1.1373 8.6784 1.06547 8.87715C0.993642 9.07591 0.9806 9.29114 1.02791 9.49711C1.07522 9.70308 1.18087 9.89106 1.33223 10.0386L5.96656 14.5557L4.32755 21.6519C4.27778 21.8667 4.29373 22.0915 4.37333 22.2971C4.45293 22.5028 4.5925 22.6797 4.77393 22.8051C4.95537 22.9304 5.17028 22.9983 5.3908 23C5.61131 23.0016 5.82724 22.937 6.01056 22.8145L12.0001 18.822L17.9896 22.8145C18.177 22.9389 18.398 23.0029 18.6228 22.998C18.8477 22.993 19.0656 22.9194 19.2474 22.7869C19.4291 22.6544 19.5659 22.4695 19.6394 22.2569C19.7129 22.0444 19.7195 21.8144 19.6583 21.598L17.6464 14.559L22.6361 10.0694C22.9628 9.7746 23.0827 9.31486 22.9419 8.89802Z"
      fill="#F59E0B" />

  </symbol>
  <symbol id="icon-village" viewBox="0 0 24 24">
    <path
      d="M7 21H4C3.45 21 3 20.55 3 20V8.69C3 8.27 3.25 7.9 3.64 7.75L14.64 3.52C14.7921 3.46132 14.9561 3.4407 15.118 3.45992C15.2798 3.47915 15.4345 3.53765 15.5686 3.63031C15.7027 3.72298 15.8121 3.84702 15.8873 3.99162C15.9624 4.13623 16.0012 4.29702 16 4.46V10H8C7.45 10 7 10.45 7 11V21ZM17 12H10C9.45 12 9 12.45 9 13V20C9 20.55 9.45 21 10 21H14V17C14 16.45 14.45 16 15 16C15.55 16 16 16.45 16 17V21H20C20.55 21 21 20.55 21 20V12C21 10.9 20.1 10 19 10C17.9 10 17 10.9 17 12Z"
      fill="currentColor" />

  </symbol>
  <symbol id="icon-apartment" viewBox="0 0 24 24">
    <path
      d="M17 11V5C17 3.9 16.1 3 15 3H9C7.9 3 7 3.9 7 5V7H5C3.9 7 3 7.9 3 9V19C3 20.1 3.9 21 5 21H11V17H13V21H19C20.1 21 21 20.1 21 19V13C21 11.9 20.1 11 19 11H17ZM7 19H5V17H7V19ZM7 15H5V13H7V15ZM7 11H5V9H7V11ZM11 15H9V13H11V15ZM11 11H9V9H11V11ZM11 7H9V5H11V7ZM15 15H13V13H15V15ZM15 11H13V9H15V11ZM15 7H13V5H15V7ZM19 19H17V17H19V19ZM19 15H17V13H19V15Z"
      fill="currentColor" />

  </symbol>
  <symbol id="chevron-left" viewBox="0 0 24 24">
    <path
      d="M13.8647 5.0018C14.1295 5.00135 14.3861 5.08254 14.59 5.2313C14.7048 5.31506 14.7996 5.41793 14.8692 5.53402C14.9387 5.65011 14.9815 5.77714 14.9952 5.90782C15.0089 6.03851 14.9932 6.17029 14.9489 6.29562C14.9047 6.42094 14.8328 6.53735 14.7374 6.63818L9.66033 11.9863L14.556 17.3444C14.6502 17.4465 14.7205 17.5639 14.7629 17.69C14.8053 17.8161 14.819 17.9482 14.8032 18.079C14.7874 18.2097 14.7424 18.3364 14.6708 18.4518C14.5992 18.5672 14.5025 18.669 14.386 18.7513C14.2688 18.8421 14.1315 18.9107 13.9827 18.9526C13.834 18.9945 13.677 19.0088 13.5216 18.9948C13.3663 18.9807 13.2159 18.9385 13.0799 18.8709C12.9439 18.8032 12.8253 18.7116 12.7315 18.6016L7.2578 12.6149C7.09112 12.4364 7 12.2124 7 11.9813C7 11.7502 7.09112 11.5263 7.2578 11.3477L12.9241 5.36101C13.0378 5.24026 13.1822 5.14481 13.3457 5.0824C13.5091 5.01999 13.6869 4.99238 13.8647 5.0018Z"
      fill="currentColor" />

  </symbol>
  <symbol id="icon-bed" viewBox="0 0 24 24">
    <path
      d="M17.85 11.0769C19.5535 11.0769 21 12.4964 21 14.3077V17.0769H19.65V18H18.75V17.0769H5.25V18H4.35V17.0769H3V14.3077C3 12.5606 4.39756 11.0769 6.15 11.0769H17.85ZM16.95 6C18.1599 6 19.2003 6.99766 19.2 8.30769L19.2003 10.5128C18.7911 10.2826 18.3332 10.1538 17.85 10.1538L16.95 10.1534C16.95 9.36294 16.319 8.76923 15.6 8.76923H12.9C12.5543 8.76923 12.2389 8.90253 12 9.12176C11.7615 8.9027 11.446 8.76923 11.1 8.76923H8.4C7.65457 8.76923 7.05024 9.38889 7.05 10.1534L6.15 10.1538C5.6669 10.1538 5.2092 10.2825 4.8 10.5126V8.30769C4.8 7.06673 5.77046 6 7.05 6H16.95ZM11.1 9.69208C11.3442 9.69208 11.55 9.92285 11.55 10.1538L7.95 10.1534C7.95 9.871 8.16922 9.69231 8.4 9.69231L11.1 9.69208ZM15.6 9.69541C15.8546 9.69207 16.0498 9.9169 16.05 10.1534H12.45C12.45 9.86697 12.6692 9.69231 12.9 9.69231L15.6 9.69541Z"
      fill="currentColor" />

  </symbol>
  <symbol id="icon-shower" viewBox="0 0 24 24">
    <path
      d="M19.9043 11.9665H4.09568C3.47311 11.9665 2.96649 12.4731 2.96649 13.0957C2.96649 13.7183 3.47311 14.2249 4.09568 14.2249H19.9043C20.5269 14.2249 21.0335 13.7183 21.0335 13.0957C21.0335 12.4731 20.5269 11.9665 19.9043 11.9665Z"
      fill="currentColor" />
    <path
      d="M20.0081 13.4864C19.8041 13.4292 19.5994 13.5451 19.5429 13.7454L19.5136 13.8485H4.48707L4.45697 13.7454C4.40051 13.5451 4.19426 13.4307 3.99175 13.4864C3.79149 13.5436 3.67631 13.7522 3.73355 13.9516L4.77088 17.5831C5.09231 18.7085 6.1342 19.4944 7.30404 19.4944H16.6951C17.8657 19.4944 18.9068 18.7085 19.2283 17.5831L20.2656 13.9516C20.3236 13.7521 20.2076 13.5436 20.0081 13.4864ZM7.30478 17.9888C6.80342 17.9888 6.35626 17.6523 6.21924 17.1698L5.73069 15.4579C5.67349 15.2577 5.78941 15.0499 5.98889 14.9927C6.19063 14.9355 6.39766 15.0522 6.45412 15.2517L6.94267 16.9635C6.98935 17.1239 7.13763 17.2368 7.30475 17.2368C7.51252 17.2368 7.68115 17.4054 7.68115 17.6132C7.68119 17.821 7.51255 17.9888 7.30478 17.9888Z"
      fill="currentColor" />
    <path
      d="M8.02756 18.7808C7.84163 18.6897 7.61653 18.7627 7.52242 18.9494L6.76964 20.455C6.67705 20.6409 6.75231 20.8668 6.93828 20.9601C6.99322 20.9872 7.05046 21 7.10692 21C7.24468 21 7.37718 20.924 7.44341 20.7915L8.1962 19.2859C8.28879 19.0999 8.21349 18.8741 8.02756 18.7808Z"
      fill="currentColor" />
    <path
      d="M17.2304 20.4557L16.4776 18.9501C16.3843 18.7634 16.1584 18.6889 15.9725 18.7815C15.7865 18.8748 15.7112 19.1007 15.8038 19.2866L16.5566 20.7922C16.6228 20.924 16.7553 21 16.8931 21C16.9496 21 17.0068 20.9872 17.0617 20.9609C17.2477 20.8675 17.323 20.6417 17.2304 20.4557Z"
      fill="currentColor" />
    <path
      d="M18.0863 3C17.7024 3 17.341 3.14979 17.0693 3.42158L15.8746 4.61626C15.7278 4.76305 15.7278 5.0017 15.8746 5.14849C16.0214 5.29529 16.2601 5.29529 16.4069 5.14849L17.6015 3.95455C17.7302 3.82508 17.9026 3.75356 18.0901 3.75356C18.4679 3.75356 18.7751 4.0607 18.7751 4.43858V12.3429C18.7751 12.5507 18.9437 12.7193 19.1515 12.7193C19.3593 12.7193 19.5279 12.5507 19.5286 12.3422V4.43784C19.5287 3.64515 18.8843 3 18.0863 3Z"
      fill="currentColor" />
    <path
      d="M16.7832 4.99265L16.0304 4.23987C15.9446 4.15406 15.8249 4.11415 15.7029 4.13447L13.821 4.44313C13.6825 4.46571 13.5688 4.56356 13.5244 4.69607C13.4799 4.82857 13.5138 4.9761 13.6117 5.07621L15.8701 7.40234C15.9416 7.47687 16.0402 7.51678 16.1396 7.51678C16.175 7.51678 16.2111 7.51152 16.2465 7.50097C16.3804 7.46183 16.4821 7.35117 16.5092 7.21415L16.8856 5.33219C16.9104 5.20946 16.872 5.08221 16.7832 4.99265Z"
      fill="currentColor" />
    <path
      d="M11.8893 7.56041C11.7425 7.41362 11.5039 7.41362 11.3571 7.56041L10.6043 8.31319C10.4575 8.45999 10.4575 8.69864 10.6043 8.84543C10.6781 8.91844 10.7744 8.95535 10.8708 8.95535C10.9672 8.95535 11.0635 8.91847 11.1365 8.84543L11.8893 8.09265C12.0361 7.94582 12.0361 7.70721 11.8893 7.56041Z"
      fill="currentColor" />
    <path
      d="M13.3949 9.06597C13.2481 8.91917 13.0094 8.91917 12.8626 9.06597L12.1099 9.81875C11.9631 9.96554 11.9631 10.2042 12.1099 10.351C12.1836 10.424 12.28 10.4609 12.3763 10.4609C12.4727 10.4609 12.569 10.424 12.6421 10.351L13.3949 9.5982C13.5417 9.45141 13.5417 9.21276 13.3949 9.06597Z"
      fill="currentColor" />
    <path
      d="M14.1477 6.80759C14.0009 6.6608 13.7623 6.6608 13.6155 6.80759L12.8627 7.56037C12.7159 7.70717 12.7159 7.94581 12.8627 8.09261C12.9365 8.16562 13.0328 8.20253 13.1292 8.20253C13.2256 8.20253 13.3219 8.16565 13.395 8.09261L14.1477 7.33983C14.2945 7.19303 14.2945 6.95439 14.1477 6.80759Z"
      fill="currentColor" />

  </symbol>
  <symbol id="icon-carport" viewBox="0 0 24 24">
    <path
      d="M20.5378 7.97141L13.0177 3.28445C12.3982 2.90186 11.5998 2.90577 10.9839 3.29267L3.45608 7.97532C2.98863 8.26911 2.85947 8.86882 3.167 9.31479C3.47494 9.76075 4.10311 9.88437 4.57097 9.59019L12.0078 4.96387L19.4356 9.5941C19.6062 9.69934 19.7969 9.74902 19.9855 9.74902C20.3184 9.74902 20.6432 9.59371 20.8371 9.30814C21.1414 8.85982 21.0069 8.26207 20.5378 7.97141Z"
      fill="currentColor" />
    <path
      d="M18.158 14.0648C18.1005 13.7273 17.8143 13.4776 17.4806 13.4776H17.097L16.9512 11.9222C16.7956 10.2586 15.4488 8.99998 13.8186 8.99998H10.182C8.55138 8.99998 7.20499 10.259 7.04897 11.9222L6.9036 13.4776H6.51962C6.1855 13.4776 5.89971 13.7273 5.84149 14.0648L5.27066 17.3826C5.19988 17.7938 5.31328 18.2171 5.5751 18.5362C5.82703 18.8437 6.19806 19.027 6.58622 19.0407V19.5916C6.58622 20.3715 7.19586 21 7.95734 21H8.39041C9.15112 21 9.7699 20.3715 9.7699 19.5916V19.0497H14.2345V19.5904C14.2345 20.3707 14.8483 21 15.609 21H16.0425C16.8032 21 17.4178 20.3707 17.4178 19.5904V19.0407C17.806 19.027 18.1747 18.8452 18.4259 18.5382C18.6877 18.2183 18.7996 17.7973 18.7296 17.3853L18.158 14.0648ZM7.79294 17.77C7.15096 17.77 6.63037 17.2367 6.63037 16.5777C6.63037 15.9188 7.15096 15.3851 7.79294 15.3851C8.43531 15.3851 8.95628 15.9184 8.95628 16.5777C8.95628 17.2367 8.43531 17.77 7.79294 17.77ZM8.08292 13.4776L8.21726 12.0427C8.31506 10.9995 9.1595 10.2137 10.182 10.2137H10.3917V10.6647C10.3917 11.056 10.695 11.3678 11.0763 11.3678H12.9243C13.3056 11.3678 13.6142 11.056 13.6142 10.6647V10.2141H13.8186C14.8411 10.2141 15.6855 10.9999 15.783 12.0431L15.9177 13.478L8.08292 13.4776ZM16.2061 17.77C15.5641 17.77 15.0436 17.2367 15.0436 16.5777C15.0436 15.9188 15.5641 15.3851 16.2061 15.3851C16.8485 15.3851 17.3695 15.9184 17.3695 16.5777C17.3695 17.2367 16.8485 17.77 16.2061 17.77Z"
      fill="currentColor" />

  </symbol>
  <symbol id="icon-stairs" viewBox="0 0 24 24">
    <path
      d="M20.0913 6.75005H16.8243C16.3223 6.75005 15.9155 7.15254 15.9155 7.64971V9.98517H13.5569C13.0548 9.98517 12.648 10.3875 12.648 10.8847V13.2203H10.2894C9.78728 13.2203 9.38064 13.6233 9.38064 14.1199V16.568H6.90879C6.66759 16.568 6.43646 16.6627 6.26611 16.8312C6.09562 16.9999 6 17.2298 6 17.4676L6.00029 19.3499C6.00029 19.8476 6.40723 20.25 6.90904 20.25H20.0913C20.5934 20.25 21 19.8476 21 19.3499V7.64968C21.0001 7.15254 20.5934 6.75005 20.0913 6.75005Z"
      fill="currentColor" />
    <path
      d="M15.573 3.93402C15.3318 3.69296 14.9368 3.68833 14.6897 3.92287C10.6823 7.72916 6.86987 11.4468 3.18307 15.0412C3.06576 15.1556 3 15.311 3 15.4722V19.6408C3 19.9767 3.27959 20.25 3.6247 20.25C3.96948 20.25 4.24956 19.9768 4.24956 19.6408V15.7243C7.87653 12.1878 11.6263 8.53351 15.5614 4.79531C15.8083 4.56081 15.8134 4.17494 15.573 3.93402Z"
      fill="currentColor" />

  </symbol>
  <symbol id="icon-phone" viewBox="0 0 24 24">
    <path
      d="M8.38436 2.4792C8.90946 2.32088 9.47295 2.34718 9.98101 2.55373C10.4891 2.76027 10.9111 3.1346 11.1768 3.6144L11.2668 3.7932L12.06 5.5584C12.3011 6.09418 12.3793 6.68902 12.285 7.26892C12.1907 7.84883 11.928 8.38822 11.5296 8.82L11.3712 8.9784L10.1184 10.146C9.89276 10.3596 10.062 11.1864 10.8792 12.6C11.6124 13.872 12.2112 14.466 12.504 14.4984H12.5556L12.6192 14.4864L15.0792 13.734C15.4098 13.6326 15.7626 13.6286 16.0954 13.7224C16.4283 13.8163 16.727 14.004 16.956 14.2632L17.0664 14.4012L18.6936 16.6572C19.0129 17.0993 19.1721 17.6369 19.1451 18.1815C19.118 18.7262 18.9063 19.2454 18.5448 19.6536L18.3984 19.8048L17.7468 20.4216C17.1627 20.9747 16.4321 21.3485 15.6418 21.4984C14.8516 21.6484 14.0348 21.5683 13.2888 21.2676C10.9668 20.3316 8.85716 18.1932 6.94076 14.874C5.02076 11.5464 4.22276 8.646 4.57916 6.162C4.68712 5.41098 4.9965 4.70324 5.47443 4.11395C5.95237 3.52467 6.58101 3.07586 7.29356 2.8152L7.52516 2.7384L8.38436 2.4792Z"
      fill="currentColor" />

  </symbol>
  <symbol id="icon-cookies" viewBox="0 0 24 24">
    <path fill-rule="evenodd" clip-rule="evenodd"
      d="M18.3323 1.95686C18.8813 1.95686 19.3272 2.40497 19.3272 2.95674C19.3272 3.5085 18.8813 3.95661 18.3323 3.95661C17.7834 3.95661 17.3375 3.5085 17.3375 2.95674C17.3392 2.40497 17.7834 1.95686 18.3323 1.95686ZM18.5985 10.6648C19.4569 11.9522 20.5432 12.3468 21.9539 11.4757C22.0005 11.9606 22.0121 12.4555 21.9872 12.9571C21.7094 18.5016 17.0131 22.7703 11.4968 22.491C5.98213 22.2101 1.73508 17.49 2.01289 11.9472C2.28904 6.40278 7.14828 2.08728 12.663 2.36651C12.1739 3.90478 12.5881 5.27082 13.8324 5.73565C12.7045 9.37732 15.2232 11.76 18.5985 10.6648ZM6.99523 9.94748C7.82202 9.94748 8.49077 10.6213 8.49077 11.4506C8.49077 12.28 7.82035 12.9538 6.99523 12.9538C6.16845 12.9538 5.4997 12.28 5.4997 11.4506C5.4997 10.6213 6.17011 9.94748 6.99523 9.94748ZM11.7064 11.8636C12.1822 11.8636 12.5681 12.2515 12.5681 12.7297C12.5681 13.2079 12.1822 13.5958 11.7064 13.5958C11.2306 13.5958 10.8447 13.2079 10.8447 12.7297C10.843 12.2515 11.229 11.8636 11.7064 11.8636ZM7.96675 15.4317C8.54733 15.4317 9.01811 15.9049 9.01811 16.4885C9.01811 17.072 8.54733 17.5452 7.96675 17.5452C7.38617 17.5452 6.91538 17.072 6.91538 16.4885C6.91538 15.9032 7.38617 15.4317 7.96675 15.4317ZM10.2325 7.34581C10.6883 7.34581 11.056 7.717 11.056 8.17346C11.056 8.6316 10.6867 9.00111 10.2325 9.00111C9.77669 9.00111 9.40905 8.62992 9.40905 8.17346C9.40905 7.717 9.77836 7.34581 10.2325 7.34581ZM14.7075 15.8013C15.471 15.8013 16.0882 16.4232 16.0882 17.189C16.0882 17.9565 15.4694 18.5768 14.7075 18.5768C13.9439 18.5768 13.3267 17.9548 13.3267 17.189C13.3267 16.4232 13.9456 15.8013 14.7075 15.8013ZM17.6154 5.81925C18.1277 5.81925 18.5436 6.23725 18.5436 6.75224C18.5436 7.26722 18.1277 7.68523 17.6154 7.68523C17.103 7.68523 16.6871 7.26722 16.6871 6.75224C16.6871 6.23725 17.103 5.81925 17.6154 5.81925Z"
      fill="currentColor" />

  </symbol>
  <symbol id="icon-cross" viewBox="0 0 24 24">
    <path d="M4.92896 4.92892L19.0711 19.0711" stroke="currentColor" stroke-width="2"
      stroke-linecap="round" stroke-linejoin="round" />
    <path d="M19.071 4.92896L4.92891 19.0711" stroke="currentColor" stroke-width="2"
      stroke-linecap="round" stroke-linejoin="round" />
  </symbol>
  <symbol id="icon-check" viewBox="0 0 24 24">
    <path d="M2.00003 12L8.03482 18L22 5" stroke="#1B1C57" stroke-width="2" stroke-linecap="round" />

  </symbol>
  <symbol id="icon-menu" viewBox="0 0 24 24">
    <path d="M2 4H22" stroke="#1B1C57" stroke-width="2" stroke-linecap="round"
      stroke-linejoin="round" />
    <path d="M2 12H22" stroke="#1B1C57" stroke-width="2" stroke-linecap="round"
      stroke-linejoin="round" />
    <path d="M2 20H22" stroke="#1B1C57" stroke-width="2" stroke-linecap="round"
      stroke-linejoin="round" />

  </symbol>
</svg>